<?xml version="1.0" standalone="no"?>
<svg viewBox="0 0 200 200" xmlns="http://www.w3.org/2000/svg">
  <path fill="#6E82A7" d="M30.5,-44.6C42.7,-39.6,58.1,-36.6,67.3,-27.5C76.4,-18.4,79.4,-3.3,71,5.6C62.6,14.5,42.8,17.2,33.5,30.5C24.3,43.8,25.6,67.8,17.9,77.7C10.2,87.5,-6.5,83.4,-17.8,74C-29.1,64.6,-34.9,49.9,-35.9,37.4C-37,24.9,-33.2,14.6,-40.7,2.2C-48.1,-10.2,-66.7,-24.6,-68.9,-36.3C-71,-48,-56.7,-57,-42.5,-61C-28.3,-65.1,-14.1,-64.2,-2.5,-60.3C9.1,-56.4,18.3,-49.5,30.5,-44.6Z" transform="translate(100 100)" />
</svg>
